<svg width="121" height="129" viewBox="0 0 121 129" fill="none" xmlns="http://www.w3.org/2000/svg">
<g clip-path="url(#clip0_4194_323)">
<path d="M120.5 69C120.504 82.3375 116.064 95.2962 107.881 105.829C99.6989 116.361 88.2402 123.867 75.3157 127.16C62.3912 130.454 48.7378 129.347 36.5126 124.015C24.2873 118.683 14.1872 109.429 7.808 97.716C3.43667 89.6897 0.956682 80.7709 0.557315 71.6402C0.157949 62.5095 1.84976 53.4082 5.50362 45.0309C9.15749 36.6537 14.6768 29.2218 21.6405 23.3026C28.6041 17.3833 36.8279 13.1331 45.6843 10.8764C54.5408 8.61957 63.7957 8.41585 72.7429 10.2807C81.69 12.1456 90.0929 16.0298 97.3103 21.6369C104.528 27.244 110.369 34.4258 114.388 42.6342C118.407 50.8425 120.497 59.8606 120.5 69Z" fill="#F0F0F0"/>
<path d="M113.192 97.716C108.033 107.188 100.417 115.094 91.1443 120.603C81.8716 126.111 71.2855 129.018 60.5 129.018C49.7145 129.018 39.1284 126.111 29.8557 120.603C20.5831 115.094 12.9666 107.188 7.80801 97.716C20.504 88.8 39.404 83.124 60.5 83.124C81.596 83.124 100.496 88.8 113.192 97.716Z" fill="#DFDFDF"/>
<path d="M81.65 91.056C81.65 97.458 71.966 102.654 60.008 102.654C48.05 102.654 38.372 97.458 38.372 91.056C38.372 87.576 41.222 85.248 45.746 83.856V62.322H74.3V83.844C78.794 85.248 81.65 87.6 81.65 91.056Z" fill="white"/>
<path opacity="0.09" d="M74.3 62.322V82.5C70.76 85.74 66.5 87.63 61.94 87.63C55.58 87.63 49.844 83.976 45.776 78.096V62.322H74.3Z" fill="black"/>
<path d="M86.3 49.2C86.2726 50.4634 86.1664 51.7238 85.982 52.974C85.382 57.468 84.398 61.098 81.014 61.068C77.9 72.852 69.686 81.27 60.014 81.27C50.342 81.27 42.152 72.87 39.044 61.068C35.66 61.098 34.682 57.468 34.076 52.974C33.7505 51.112 33.6859 49.2138 33.884 47.334C34.124 45.852 34.736 44.724 35.96 44.13C36.4017 43.9216 36.8735 43.7839 37.358 43.722C37.52 43.722 37.682 43.686 37.838 43.68C37.91 42.24 38.006 40.842 38.156 39.48C38.3278 37.7259 38.6205 35.9858 39.032 34.272C39.3249 33.0238 39.7141 31.8001 40.196 30.612C40.9823 28.6409 42.1415 26.84 43.61 25.308C46.382 22.788 51.062 20.262 58.556 19.974C59.036 19.974 59.522 19.974 60.014 19.974C73.052 19.974 78.506 25.272 80.762 33.336C80.804 33.486 80.846 33.63 80.882 33.78C81.026 34.38 81.158 34.932 81.278 35.52C81.6347 37.3033 81.8831 39.1066 82.022 40.92C82.094 41.814 82.148 42.72 82.196 43.662C82.352 43.662 82.508 43.662 82.676 43.704C83.2463 43.7487 83.7982 43.9261 84.2878 44.222C84.7774 44.5178 85.1912 44.9239 85.496 45.408C86.1024 46.5759 86.3803 47.8865 86.3 49.2Z" fill="white"/>
<path opacity="0.07" d="M85.952 52.998C85.352 57.492 84.368 61.122 80.984 61.092C77.87 72.876 69.656 81.294 59.984 81.294C58.9489 81.2959 57.9161 81.1975 56.9 81C70.34 78.648 80.33 62.892 79.658 44.208C79.418 37.392 78.56 31.008 76.694 25.662C78.7457 27.9832 80.1907 30.7763 80.9 33.792C81.044 34.392 81.176 34.944 81.296 35.532C81.8097 38.2286 82.1166 40.9606 82.214 43.704C82.37 43.704 82.526 43.704 82.694 43.746C83.2643 43.7907 83.8162 43.9681 84.3058 44.264C84.7954 44.5598 85.2092 44.9659 85.514 45.45C86.516 47.142 86.372 49.896 85.952 52.998Z" fill="black"/>
<path opacity="0.07" d="M80.756 33.348C80.516 32.922 80.264 32.502 80.024 32.076C78.86 30.03 77.024 28.242 74.75 27.654C72.35 27.054 69.8 27.81 67.436 28.608C65.0797 29.3785 62.613 29.7575 60.134 29.73C57.6551 29.7562 55.1886 29.3772 52.832 28.608C50.468 27.81 47.942 27.03 45.524 27.654C43.238 28.254 41.42 30.054 40.256 32.076C39.836 32.814 39.398 33.552 39.026 34.308C39.3189 33.0598 39.7081 31.8361 40.19 30.648C40.9763 28.6769 42.1355 26.876 43.604 25.344C46.376 22.824 51.056 20.298 58.55 20.01C59.03 20.01 59.516 20.01 60.008 20.01C73.046 19.986 78.5 25.284 80.756 33.348Z" fill="black"/>
<path d="M85.508 42.12C84.602 44.19 83.474 46.218 82.832 48.378C82.7909 48.5345 82.6991 48.6729 82.5711 48.7717C82.443 48.8705 82.2858 48.9241 82.124 48.9241C81.9622 48.9241 81.805 48.8705 81.6769 48.7717C81.5488 48.6729 81.4571 48.5345 81.416 48.378C79.49 41.4 83.336 27 73.7 24.534C71.456 23.934 69.104 24.678 66.908 25.422C62.4899 26.8062 57.7541 26.8062 53.336 25.422C51.14 24.678 48.794 23.958 46.55 24.534C42.446 25.59 40.454 29.682 39.812 33.534C39.488 35.5184 39.4517 37.5392 39.704 39.534C40.052 42.378 39.416 45.468 38.72 48.234C38.6641 48.4296 38.5461 48.6017 38.3837 48.7242C38.2213 48.8467 38.0234 48.9129 37.82 48.9129C37.6166 48.9129 37.4187 48.8467 37.2563 48.7242C37.0939 48.6017 36.9759 48.4296 36.92 48.234C36.7843 47.768 36.7136 47.2854 36.71 46.8C36.7587 45.1935 36.285 43.6144 35.36 42.3C35.2831 42.1886 35.1989 42.0824 35.108 41.982C34.43 41.202 33.518 40.638 33.104 39.582C32.8165 38.7773 32.785 37.9033 33.014 37.08C33.332 35.772 34.022 34.632 34.286 33.306C34.832 30.534 33.53 27.768 32.354 25.194C31.178 22.62 30.074 19.71 31.01 17.04C31.718 15.018 33.452 13.56 35.114 12.24L39.35 8.79001C41.6 6.96601 43.4 4.80001 46.064 3.63001C48.3952 2.63675 50.8982 2.10884 53.432 2.07601C54.6664 2.06383 55.9006 2.12394 57.128 2.25601C58.148 2.36401 59.294 2.71801 60.308 2.45401C62.48 1.88401 64.256 1.18801 66.578 1.39801C68.7581 1.58904 70.8459 2.36652 72.62 3.64801C74.684 5.17201 76.22 7.30201 78.182 8.94601C78.812 9.46801 79.478 9.94201 80.156 10.404C81.716 11.472 83.324 12.468 84.578 13.86C86.48 15.966 87.392 18.786 87.908 21.576C89.1784 28.51 88.3425 35.6656 85.508 42.12Z" fill="#7C7C7C"/>
<path d="M80.156 10.404C77.1851 10.1219 74.2503 9.54093 71.396 8.67001C65.336 6.81601 57.818 2.97001 51.884 7.31401C49.1 9.36601 47.63 12.996 44.348 14.286C41.888 15.252 38.6 14.784 37.874 18.324C37.7044 19.27 37.762 20.2427 38.042 21.162C39.566 26.694 37.886 30.888 35.642 36.162C34.8397 37.9997 34.6524 40.0473 35.108 42C34.43 41.22 33.518 40.656 33.104 39.6C32.8165 38.7953 32.785 37.9213 33.014 37.098C33.332 35.79 34.022 34.65 34.286 33.324C34.832 30.552 33.53 27.786 32.354 25.212C31.178 22.638 30.074 19.728 31.01 17.058C31.718 15.036 33.452 13.578 35.114 12.258L39.35 8.80801C41.6 6.96601 43.4 4.80001 46.064 3.63001C48.3952 2.63675 50.8982 2.10884 53.432 2.07601C54.6664 2.06383 55.9006 2.12394 57.128 2.25601C58.148 2.36401 59.294 2.71801 60.308 2.45401C62.48 1.88401 64.256 1.18801 66.578 1.39801C68.7581 1.58904 70.8459 2.36652 72.62 3.64801C74.684 5.17201 76.22 7.30201 78.182 8.94601C78.812 9.46801 79.478 9.94201 80.156 10.404Z" fill="#949494"/>
</g>
<defs>
<clipPath id="clip0_4194_323">
<rect width="120" height="129" fill="white" transform="translate(0.5)"/>
</clipPath>
</defs>
</svg>
